<?xml version="1.0" encoding="UTF-8"?>
<!DOCTYPE svg PUBLIC "-//W3C//DTD SVG 1.1//EN" "http://www.w3.org/Graphics/SVG/1.1/DTD/svg11.dtd">
<!-- Creator: CorelDRAW -->
<svg xmlns="http://www.w3.org/2000/svg" xml:space="preserve" width="16.1706in" height="1.19276in" version="1.1" style="shape-rendering:geometricPrecision; text-rendering:geometricPrecision; image-rendering:optimizeQuality; fill-rule:evenodd; clip-rule:evenodd"
viewBox="0 0 16171.43 1192.82"
 xmlns:xlink="http://www.w3.org/1999/xlink"
 xmlns:xodm="http://www.corel.com/coreldraw/odm/2003">
 <defs>
  <style type="text/css">
   <![CDATA[
    .str2 {stroke:gray;stroke-width:27.78;stroke-miterlimit:2.61313}
    .str0 {stroke:#3B5DCD;stroke-width:3;stroke-miterlimit:2.61313}
    .str1 {stroke:#B3B3B3;stroke-width:3;stroke-miterlimit:2.61313}
    .fil5 {fill:none}
    .fil0 {fill:#3B5DCE;fill-rule:nonzero}
    .fil4 {fill:gray;fill-rule:nonzero}
    .fil3 {fill:url(#id0)}
    .fil1 {fill:url(#id1)}
    .fil2 {fill:url(#id2)}
   ]]>
  </style>
  <linearGradient id="id0" gradientUnits="userSpaceOnUse" x1="-136.55" y1="536.21" x2="691.64" y2="624.57">
   <stop offset="0" style="stop-opacity:1; stop-color:#3452B5"/>
   <stop offset="0.121569" style="stop-opacity:1; stop-color:#3E6CC8"/>
   <stop offset="1" style="stop-opacity:1; stop-color:#4886DB"/>
  </linearGradient>
  <linearGradient id="id1" gradientUnits="userSpaceOnUse" x1="876.14" y1="124.75" x2="1381.45" y2="316.68">
   <stop offset="0" style="stop-opacity:1; stop-color:#3452B5"/>
   <stop offset="0.45098" style="stop-opacity:1; stop-color:#2B4495"/>
   <stop offset="1" style="stop-opacity:1; stop-color:#223574"/>
  </linearGradient>
  <linearGradient id="id2" gradientUnits="userSpaceOnUse" x1="-24.45" y1="755.74" x2="352.89" y2="899.86">
   <stop offset="0" style="stop-opacity:1; stop-color:#223574"/>
   <stop offset="0.211765" style="stop-opacity:1; stop-color:#2B4394"/>
   <stop offset="1" style="stop-opacity:1; stop-color:#3452B5"/>
  </linearGradient>
 </defs>
 <g id="Layer_x0020_1">
  <metadata id="CorelCorpID_0Corel-Layer"/>
  <g id="_105553121343200">
   <path class="fil0" d="M1553.57 954.84l0 -598.67 1.24 0 440.02 598.67 153.7 0 0 -867.64 -158.65 0 0 597.43 -1.24 0 -441.26 -597.43 -152.46 0 0 867.64 158.65 0zm1380.79 -264.01l0 -57.01c0,-184.68 -104.12,-339.62 -303.67,-339.62 -183.45,0 -328.47,147.5 -328.47,337.14 0,189.64 138.82,337.14 334.66,337.14 105.36,0 178.49,-26.03 257.81,-91.72l-71.89 -104.12c-68.17,47.1 -110.32,60.73 -180.97,60.73 -96.68,0 -162.37,-50.82 -180.97,-142.54l473.49 0zm-474.72 -111.55c17.35,-97.92 84.28,-152.46 172.28,-152.46 96.68,0 142.54,74.37 149.98,152.46l-322.27 0zm1083.31 375.56l100.4 0 0 -647.01 -154.94 0 0 350.77c0,101.64 -54.53,164.85 -133.86,164.85 -78.09,0 -127.67,-39.66 -127.67,-151.22l0 -364.41 -154.93 0 0 385.48c0,205.75 101.64,275.16 236.74,275.16 104.12,0 178.49,-64.45 204.51,-112.79l29.75 99.16zm245.42 -73.13c112.79,71.89 205.76,86.76 283.84,86.76 176.01,0 267.73,-85.52 267.73,-207 0,-147.5 -114.03,-179.72 -244.18,-197.08 -99.16,-12.39 -137.58,-28.51 -137.58,-71.89 0,-44.62 32.23,-68.17 101.64,-68.17 65.69,0 131.38,21.07 200.79,64.46l68.17 -116.51c-90.48,-59.5 -192.12,-78.09 -266.49,-78.09 -153.69,0 -252.85,85.52 -252.85,204.51 0,148.74 112.79,187.16 242.94,202.04 96.68,11.15 140.06,27.27 140.06,71.89 0,37.18 -27.27,64.45 -115.27,64.45 -78.09,0 -143.78,-22.31 -221.87,-73.13l-66.93 117.75zm1046.12 -81.81c-38.42,18.6 -64.45,27.27 -100.4,27.27 -48.34,0 -70.65,-21.07 -70.65,-90.48l0 -287.56 198.32 0 0 -138.82 -198.32 0 0 -140.06 -148.74 0 0 140.06 -88 0 0 138.82 81.81 0 0 287.56c0,159.89 83.04,231.78 218.15,231.78 40.9,0 102.88,-7.44 158.65,-44.62l-50.82 -123.95zm338.38 154.94l0 -314.83c0,-104.12 52.06,-190.88 218.15,-179.73l21.07 -164.85c-166.09,-9.91 -223.11,64.45 -257.81,126.43l-37.18 -114.03 -99.16 0 0 647.01 154.94 0zm784.59 0l116.51 0 0 -353.25c0,-210.71 -37.19,-307.39 -276.4,-307.39 -105.36,0 -223.11,19.83 -256.57,30.99l33.47 132.63c52.06,-16.11 131.38,-26.03 195.84,-26.03 125.19,0 148.74,26.03 148.74,151.22 -45.86,-12.39 -94.2,-22.31 -167.33,-22.31 -145.02,0 -257.81,64.45 -257.81,197.08 0,136.34 107.83,210.71 231.78,210.71 116.51,0 177.25,-50.82 204.51,-99.16l27.27 85.52zm-34.7 -255.33c0,76.85 -43.38,143.78 -161.13,143.78 -65.69,0 -110.31,-29.75 -110.31,-84.28 0,-53.3 39.66,-85.52 120.23,-85.52 64.45,0 110.31,8.67 151.22,19.83l0 6.2zm679.23 100.4c-38.42,18.6 -64.45,27.27 -100.4,27.27 -48.34,0 -70.65,-21.07 -70.65,-90.48l0 -287.56 198.32 0 0 -138.82 -198.32 0 0 -140.06 -148.74 0 0 140.06 -88 0 0 138.82 81.81 0 0 287.56c0,159.89 83.04,231.78 218.15,231.78 40.9,0 102.88,-7.44 158.65,-44.62l-50.82 -123.95zm135.1 -168.57c0,189.64 142.54,337.14 335.9,337.14 193.36,0 335.9,-147.5 335.9,-337.14 0,-189.64 -142.54,-337.14 -335.9,-337.14 -193.36,0 -335.9,147.5 -335.9,337.14zm335.9 195.84c-105.36,0 -179.73,-84.28 -179.73,-195.84 0,-112.79 74.37,-195.84 179.73,-195.84 105.36,0 178.48,83.04 178.48,195.84 0,111.55 -73.13,195.84 -178.48,195.84zm431.34 54.54c112.79,71.89 205.76,86.76 283.84,86.76 176.01,0 267.73,-85.52 267.73,-207 0,-147.5 -114.03,-179.72 -244.18,-197.08 -99.16,-12.39 -137.58,-28.51 -137.58,-71.89 0,-44.62 32.23,-68.17 101.64,-68.17 65.69,0 131.38,21.07 200.79,64.46l68.17 -116.51c-90.48,-59.5 -192.12,-78.09 -266.49,-78.09 -153.69,0 -252.85,85.52 -252.85,204.51 0,148.74 112.79,187.16 242.94,202.04 96.68,11.15 140.06,27.27 140.06,71.89 0,37.18 -27.27,64.45 -115.27,64.45 -78.09,0 -143.78,-22.31 -221.87,-73.13l-66.93 117.75zm1118.01 73.13l0 -302.43 172.29 0c145.02,0 307.39,-83.05 307.39,-283.84 0,-200.8 -162.37,-281.36 -307.39,-281.36l-330.94 0 0 867.64 158.65 0zm0 -725.1l157.41 0c121.47,0 162.37,63.21 162.37,138.82 0,76.85 -40.9,141.3 -162.37,141.3l-157.41 0 0 -280.12zm780.88 725.1l0 -314.83c0,-104.12 52.06,-190.88 218.15,-179.73l21.07 -164.85c-166.09,-9.91 -223.11,64.45 -257.81,126.43l-37.18 -114.03 -99.16 0 0 647.01 154.94 0zm303.67 -323.51c0,189.64 142.54,337.14 335.9,337.14 193.36,0 335.9,-147.5 335.9,-337.14 0,-189.64 -142.54,-337.14 -335.9,-337.14 -193.36,0 -335.9,147.5 -335.9,337.14zm335.9 195.84c-105.36,0 -179.73,-84.28 -179.73,-195.84 0,-112.79 74.37,-195.84 179.73,-195.84 105.36,0 178.48,83.04 178.48,195.84 0,111.55 -73.13,195.84 -178.48,195.84zm1118.01 -117.75c-69.41,78.09 -145.02,116.51 -236.74,116.51 -173.53,0 -285.08,-142.54 -285.08,-304.91 0,-162.37 111.55,-304.91 285.08,-304.91 91.72,0 164.85,38.42 234.26,118.99l106.6 -117.75c-89.24,-94.2 -218.15,-146.26 -340.86,-146.26 -250.38,0 -444.98,197.08 -444.98,449.93 0,252.85 194.6,449.93 444.98,449.93 121.47,0 259.05,-54.54 339.62,-147.5l-102.88 -114.03zm666.84 245.42l116.51 0 0 -353.25c0,-210.71 -37.19,-307.39 -276.4,-307.39 -105.36,0 -223.11,19.83 -256.57,30.99l33.47 132.63c52.06,-16.11 131.38,-26.03 195.84,-26.03 125.19,0 148.74,26.03 148.74,151.22 -45.86,-12.39 -94.2,-22.31 -167.33,-22.31 -145.02,0 -257.81,64.45 -257.81,197.08 0,136.34 107.83,210.71 231.78,210.71 116.51,0 177.25,-50.82 204.51,-99.16l27.27 85.52zm-34.7 -255.33c0,76.85 -43.38,143.78 -161.13,143.78 -65.69,0 -110.31,-29.75 -110.31,-84.28 0,-53.3 39.66,-85.52 120.23,-85.52 64.45,0 110.31,8.67 151.22,19.83l0 6.2zm493.31 493.31l0 -328.46c33.47,45.86 106.59,104.12 213.19,104.12 173.53,0 297.48,-149.98 297.48,-337.14 0,-188.4 -123.95,-337.14 -297.48,-337.14 -116.51,0 -194.6,52.06 -241.7,110.31l-27.27 -96.68 -99.16 0 0 884.99 154.94 0zm174.77 -365.65c-102.88,0 -176.01,-86.76 -176.01,-195.84 0,-110.31 73.13,-195.84 176.01,-195.84 106.6,0 178.49,83.04 178.49,195.84 0,111.55 -71.89,195.84 -178.49,195.84z"/>
   <path class="fil0" d="M8160.87 433.79c-22.98,0 -42.58,8.2 -58.89,24.56 -16.17,16.31 -24.28,35.95 -24.28,59.02 0,23.2 8.07,43.03 24.15,59.38 16.22,16.35 35.86,24.55 59.02,24.55 23.16,0 42.8,-8.2 59.02,-24.55 16.17,-16.36 24.28,-36.18 24.28,-59.38 0,-23.07 -8.11,-42.71 -24.28,-59.02 -16.31,-16.36 -35.95,-24.56 -59.02,-24.56zm97 83.58c0,26.85 -9.46,49.74 -28.38,68.75 -18.88,19.01 -41.76,28.52 -68.61,28.52 -26.85,0 -49.65,-9.5 -68.48,-28.52 -18.74,-18.92 -28.12,-41.86 -28.12,-68.75 0,-26.67 9.42,-49.47 28.34,-68.39 18.83,-18.83 41.58,-28.25 68.26,-28.25 26.85,0 49.74,9.42 68.61,28.25 18.92,18.83 28.38,41.63 28.38,68.39zm-71.63 -21.13c0,-7.75 -2.39,-12.93 -7.07,-15.59 -4.73,-2.61 -12.26,-3.96 -22.66,-3.96l-15.95 0 0 38.57 16.89 0c7.93,0 13.88,-0.81 17.8,-2.39 7.34,-2.89 10.99,-8.43 10.99,-16.63zm-27.21 -32.35c13.2,0 22.89,1.31 29.06,3.83 10.99,4.59 16.49,13.56 16.49,26.94 0,9.5 -3.47,16.49 -10.45,20.99 -3.7,2.34 -8.83,4.1 -15.41,5.14 8.34,1.3 14.46,4.78 18.34,10.41 3.88,5.63 5.82,11.17 5.82,16.53l0 7.75c0,2.48 0.09,5.13 0.27,7.93 0.14,2.84 0.45,4.69 0.9,5.54l0.68 1.35 -17.57 0c-0.09,-0.36 -0.18,-0.72 -0.27,-1.08 -0.09,-0.36 -0.18,-0.72 -0.27,-1.17l-0.36 -3.43 0 -8.47c0,-12.3 -3.38,-20.45 -10.05,-24.42 -3.96,-2.3 -10.9,-3.42 -20.86,-3.42l-14.78 0 0 41.99 -18.74 0 0 -106.42 37.21 0z"/>
   <g>
    <path class="fil1" d="M860.43 253.3c157.58,-3.05 158.71,67.41 161.84,70.02 22.65,-14.93 86.39,-53.73 107.38,-144.25 16.9,-81.34 -17.35,-118.71 -85.82,-148.8 -24.24,-8.49 -119.17,-4.95 -154.01,-4.95l-318.81 0c-48.49,0 -111.44,-3.18 -153.13,7.76 -79.01,20.73 -158.47,89.79 -197.01,162.27 -12.46,30.63 -82,184.33 -82.48,208.27 271.52,-198.99 387.02,-150.33 722.05,-150.33z"/>
    <path class="fil2" d="M84.65 1006.25c5.41,1.65 15.04,3.2 20.91,4.1 23.31,3.56 216.99,1.44 268.88,1.45 29.75,0 26,2.85 32.89,-16.42 12.34,-31.58 85.34,-213.65 89.15,-229.77 -62.7,-2.87 -250,4 -294.39,-2.8 -29.56,-4.53 -56.58,-16.23 -76.22,-43.81 -9.59,-13.47 0.25,-10.8 -14.67,-3.09 -84.14,52.86 -186.25,238.84 -26.54,290.34z"/>
    <path class="fil3 str0" d="M1.5 893.36c11.49,-132.89 158.63,-239.36 286.25,-240.59 147.57,-1.42 298.5,0.19 446.63,-0.15 20.56,-0.05 33.37,-1.2 51.97,-4.13 151.17,-23.82 270.47,-301.53 322.69,-416.73 -49.09,99.36 -181.29,151.09 -333.52,151.09 -56.92,0 -401.6,-2.67 -421.1,3.21l-30.66 7.48c-83.82,24.66 -169.8,99.99 -205.62,180.58 -29.08,65.44 -116.42,251.36 -116.64,319.23z"/>
   </g>
   <path class="fil4 str1" d="M14033.05 865.99c79.33,84.28 182.21,127.67 295,127.67 177.25,0 303.67,-90.49 303.67,-245.42 0,-137.58 -105.36,-199.56 -169.81,-213.19l0 -1.24c63.21,-17.36 142.54,-84.29 142.54,-204.52 0,-159.89 -136.34,-235.5 -275.16,-235.5 -112.8,0 -203.28,43.38 -282.61,127.66l45.86 53.3c83.05,-85.52 156.18,-111.55 236.74,-111.55 114.03,0 203.27,58.26 203.27,173.53 0,69.41 -43.38,166.09 -190.88,166.09l-151.22 0 0 66.93 146.26 0c126.43,0 221.87,66.93 221.87,174.77 0,109.08 -79.33,179.73 -230.54,179.73 -83.05,0 -167.33,-28.51 -249.14,-111.55l-45.86 53.3zm732.54 -153.7c0,166.09 122.71,281.37 297.48,281.37 173.53,0 296.24,-115.27 296.24,-281.37 0,-166.09 -122.71,-280.13 -296.24,-280.13 -35.94,0 -69.41,7.44 -101.64,21.07 3.72,-4.96 7.43,-8.68 11.15,-13.63l257.81 -329.71 -89.24 0 -257.82 329.71c-54.54,69.41 -117.75,153.7 -117.75,272.69zm73.13 0c0,-127.67 90.48,-211.95 224.35,-211.95 135.11,0 224.35,83.04 224.35,211.95 0,130.14 -89.24,211.95 -224.35,211.95 -136.34,0 -224.35,-81.81 -224.35,-211.95zm991.59 281.37c234.26,0 339.62,-203.28 339.62,-449.94 0,-246.66 -105.36,-449.93 -339.62,-449.93 -234.26,0 -339.62,203.27 -339.62,449.93 0,246.66 105.36,449.94 339.62,449.94zm0 -69.41c-199.56,0 -267.73,-192.12 -267.73,-380.52 0,-188.4 68.17,-380.52 267.73,-380.52 198.32,0 266.49,192.12 266.49,380.52 0,188.4 -66.93,380.52 -266.49,380.52z"/>
   <line class="fil5 str2" x1="13418.78" y1="0" x2="13418.78" y2= "1092.06" />
  </g>
 </g>
</svg>
